# xmcd
#
# Track frame offsets:
# 150
# 11570
# 20295
# 32452
# 50735
# 61687
# 75170
# 86855
# 97275
# 107262
# 118912
# 129772
# 141120
# 154300
# 165457
# 175670
#
# Disc length: 2473 seconds
#
#
# Revision: 0
# Processed by: cddbd v1.5.1PL0 Copyright (c) Steve Scherf et al.
# Submitted via: FreeRIP 2.80 
#
DISCID=bd09a710
DTITLE=John Lee Hooker - Boom, Boom
DYEAR=1900
DGENRE=Blues
TTITLE0=Boom Boom
TTITLE1=Hobo Blues
TTITLE2=I want to hug you
TTITLE3=House rent boogie
TTITLE4=Want Ad Blues
TTITLE5=I'm so excited
TTITLE6=Hard Headed Woman
TTITLE7=I wanna walk
TTITLE8=Onions
TTITLE9=What do you say
TTITLE10=Keeps your hands to yourself
TTITLE11=Send me your pillow
TTITLE12=She shot me down
TTITLE13=I'm want to shout
TTITLE14=I'm leaving baby
TTITLE15=Dusty Road
EXTD=
EXTT0=
EXTT1=
EXTT2=
EXTT3=
EXTT4=
EXTT5=
EXTT6=
EXTT7=
EXTT8=
EXTT9=
EXTT10=
EXTT11=
EXTT12=
EXTT13=
EXTT14=
EXTT15=
PLAYORDER=
